<svg xmlns="http://www.w3.org/2000/svg" version="1.1" xmlns:xlink="http://www.w3.org/1999/xlink" width="512" height="512" x="0" y="0" viewBox="0 0 512 512" style="enable-background:new 0 0 512 512" xml:space="preserve"><g><path d="M488.727 279.273c-6.982 0-11.636 4.655-11.636 11.636v151.273c0 6.982-4.655 11.636-11.636 11.636H46.545c-6.982 0-11.636-4.655-11.636-11.636V290.909c0-6.982-4.655-11.636-11.636-11.636s-11.636 4.655-11.636 11.636v151.273c0 19.782 15.127 34.909 34.909 34.909h418.909c19.782 0 34.909-15.127 34.909-34.909V290.909c0-6.982-4.655-11.636-11.637-11.636z" fill="#ffffff" opacity="1" data-original="#000000"></path><path d="M477.091 116.364H34.909C15.127 116.364 0 131.491 0 151.273v74.473c0 16.29 11.636 30.254 26.764 33.745l182.691 40.727v37.236c0 6.982 4.655 11.636 11.636 11.636h69.818c6.982 0 11.636-4.655 11.636-11.636v-37.236l182.691-40.727C500.364 256 512 242.036 512 225.745v-74.473c0-19.781-15.127-34.908-34.909-34.908zM279.273 325.818h-46.545v-46.545h46.545v46.545zm209.454-100.073c0 5.818-3.491 10.473-9.309 11.636l-176.873 39.564v-9.309c0-6.982-4.655-11.636-11.636-11.636h-69.818c-6.982 0-11.636 4.655-11.636 11.636v9.309L32.582 237.382c-5.818-1.164-9.309-5.818-9.309-11.636v-74.473c0-6.982 4.655-11.636 11.636-11.636h442.182c6.982 0 11.636 4.655 11.636 11.636v74.472zM314.182 34.909H197.818c-19.782 0-34.909 15.127-34.909 34.909v11.636c0 6.982 4.655 11.636 11.636 11.636s11.636-4.655 11.636-11.636V69.818c0-6.982 4.655-11.636 11.636-11.636h116.364c6.982 0 11.636 4.655 11.636 11.636v11.636c0 6.982 4.655 11.636 11.636 11.636 6.982 0 11.636-4.655 11.636-11.636V69.818c.002-19.782-15.125-34.909-34.907-34.909z" fill="#ffffff" opacity="1" data-original="#000000"></path></g></svg>