<svg xmlns="http://www.w3.org/2000/svg" version="1.1" xmlns:xlink="http://www.w3.org/1999/xlink" width="512" height="512" x="0" y="0" viewBox="0 0 512.002 512.002" style="enable-background:new 0 0 512 512" xml:space="preserve" class="hovered-paths"><g><path fill="#f6ee86" d="M499.992 363.738V180.89c0-23.958-19.422-43.381-43.381-43.381s-43.381 19.422-43.381 43.381v44.885L295.689 108.234c-14.686-14.686-38.496-14.686-53.181 0-14.686 14.686-14.686 38.495 0 53.181l-26.846-26.846c-14.686-14.686-38.496-14.686-53.181 0-14.686 14.686-14.686 38.496 0 53.181l15.543 15.543c-14.686-14.685-38.496-14.685-53.181 0-14.686 14.686-14.686 38.496 0 53.181l38.356 38.356c-14.686-14.686-38.496-14.686-53.181 0-14.686 14.686-14.686 38.496 0 53.181l118.403 118.403c60.782 60.782 159.329 60.782 220.111 0l15.254-15.254c24.14-24.139 36.209-55.778 36.209-87.417-.003 0-.003-.003-.003-.005z" opacity="1" data-original="#f6ee86"></path><g fill="#eed076"><path d="m168.719 300.354-5.523-5.523-13.673-8.726c-13.315-4.86-28.825-1.957-39.509 8.726-14.686 14.686-14.686 38.496 0 53.181l73.117 73.117c-23.792-41.197-28.58-92.307-14.412-120.775zM124.84 256.475l20.593 20.593c-3.691-11.43-12.71-57.347 3.183-84.673-8.665.647-17.149 4.273-23.775 10.899-14.686 14.685-14.686 38.495-.001 53.181zM315.387 241.795a7.482 7.482 0 0 1-5.304-2.197l-72.881-72.88a7.5 7.5 0 0 1 10.607-10.606l72.881 72.88a7.5 7.5 0 0 1-5.303 12.803zM263.061 295.833a7.482 7.482 0 0 1-5.304-2.197l-85.04-85.04a7.5 7.5 0 0 1 10.607-10.606l85.04 85.039a7.5 7.5 0 0 1-5.303 12.804z" fill="#eed076" opacity="1" data-original="#eed076"></path><path d="M219.296 358.43a7.478 7.478 0 0 1-5.304-2.197l-56.1-56.099a7.5 7.5 0 0 1 10.607-10.606l56.1 56.099a7.5 7.5 0 0 1-5.303 12.803z" fill="#eed076" opacity="1" data-original="#eed076"></path></g><g fill="#4e5660"><path d="M361.53 110.564c-5.13-21.281-22.299-37.868-43.739-42.255a7.5 7.5 0 1 1 3.008-14.695c27.114 5.549 48.826 26.523 55.314 53.436a7.5 7.5 0 0 1-5.533 9.048c-4.01.967-8.075-1.49-9.05-5.534zM415.84 105.496c-11.005-45.653-47.836-81.234-93.83-90.646a7.5 7.5 0 0 1-5.844-8.851 7.496 7.496 0 0 1 8.852-5.844c51.668 10.573 93.042 50.542 105.404 101.826a7.5 7.5 0 1 1-14.582 3.515z" fill="#ffffff" opacity="1" data-original="#4e5660" class="hovered-path"></path></g><g fill="#4e5660"><path d="M119.058 436.749c-26.912-6.487-47.887-28.199-53.435-55.314a7.5 7.5 0 0 1 5.845-8.851c4.053-.833 8.02 1.786 8.851 5.844 4.387 21.44 20.973 38.608 42.255 43.739a7.5 7.5 0 1 1-3.516 14.582zM113.991 491.058c-51.284-12.362-91.254-53.736-101.827-105.405a7.5 7.5 0 0 1 5.844-8.851 7.496 7.496 0 0 1 8.852 5.844c9.412 45.994 44.993 82.825 90.647 93.83a7.5 7.5 0 1 1-3.516 14.582z" fill="#ffffff" opacity="1" data-original="#4e5660" class="hovered-path"></path></g><path fill="#eed076" d="M375.629 384.698c-2.9 0-5.659-1.69-6.886-4.52-15.847-36.561-12.919-78.647 7.832-112.579a7.5 7.5 0 0 1 10.312-2.486 7.5 7.5 0 0 1 2.485 10.311c-18.206 29.772-20.773 66.703-6.865 98.789a7.502 7.502 0 0 1-6.878 10.485z" opacity="1" data-original="#eed076"></path></g></svg>