<svg xmlns="http://www.w3.org/2000/svg" version="1.1" xmlns:xlink="http://www.w3.org/1999/xlink" width="512" height="512" x="0" y="0" viewBox="0 0 64 64" style="enable-background:new 0 0 512 512" xml:space="preserve" class="hovered-paths"><g><path d="M57 2H7C4.24 2 2 4.24 2 7v42c0 2.76 2.24 5 5 5h34.64c.55 0 1-.45 1-1s-.45-1-1-1H7c-1.65 0-3-1.35-3-3V10h56v39c0 .6-.18 1.18-.51 1.67-.31.46-.19 1.08.27 1.39s1.08.19 1.39-.27c.56-.83.85-1.79.85-2.79V7c0-2.76-2.24-5-5-5zM4 7c0-1.65 1.35-3 3-3h37v4H4zm42 1V4h11c1.65 0 3 1.35 3 3v1z" fill="#ffffff" opacity="1" data-original="#000000" class="hovered-path"></path><path d="M50.72 46.97c-1.34-1.14-3.25-1.25-4.72-.39l-2.73-2.73c2.31-2.64 3.72-6.08 3.72-9.86 0-1.5-.22-2.97-.65-4.38-.1-.45-.5-.78-.98-.78-.55 0-1 .45-1 1.01 0 .1.02.2.05.3.39 1.24.58 2.53.58 3.85 0 7.17-5.83 13-13 13s-13-5.83-13-13 5.83-13 13-13c2.99 0 5.8.99 8.12 2.86a1.002 1.002 0 1 0 1.26-1.56c-2.69-2.16-5.93-3.3-9.38-3.3-8.27 0-15 6.73-15 15s6.73 15 15 15c3.78 0 7.22-1.41 9.86-3.73l2.72 2.72c-.86 1.46-.76 3.37.39 4.72l6.7 7.86c.74.86 1.81 1.38 2.94 1.43h.16c1.08 0 2.12-.43 2.88-1.19l1.15-1.15c.8-.8 1.23-1.91 1.19-3.04s-.56-2.2-1.43-2.94l-7.86-6.7zm6.68 11.27-1.15 1.15c-.41.41-.96.63-1.55.61-.58-.02-1.11-.28-1.49-.73l-6.7-7.86c-.7-.82-.65-2.05.11-2.81.4-.4.93-.6 1.46-.6.48 0 .96.16 1.34.49l7.86 6.7c.45.38.7.91.73 1.49.02.58-.19 1.13-.6 1.55z" fill="#ffffff" opacity="1" data-original="#000000" class="hovered-path"></path><path d="M30.71 29.29a.996.996 0 0 0-1.41 0l-6 6a.996.996 0 0 0 .71 1.7c.26 0 .51-.1.71-.29l5.29-5.29 4.29 4.29c.19.19.46.28.72.29.27 0 .53-.12.71-.31L51 19.51V23c0 .55.45 1 1 1s1-.45 1-1v-6c0-.55-.45-1-1-1h-6c-.55 0-1 .45-1 1s.45 1 1 1h3.68l-14.7 15.57-4.27-4.27z" fill="#ffffff" opacity="1" data-original="#000000" class="hovered-path"></path></g></svg>