<svg xmlns="http://www.w3.org/2000/svg" version="1.1" xmlns:xlink="http://www.w3.org/1999/xlink" width="512" height="512" x="0" y="0" viewBox="0 0 24 24" style="enable-background:new 0 0 512 512" xml:space="preserve" class="hovered-paths"><g><path d="m14 9.09 8.81 1.75c.71.15 1.19.75 1.19 1.46v10.2c0 .83-.67 1.5-1.5 1.5h-9c.28 0 .5-.22.5-.5V23h8.5c.27 0 .5-.22.5-.5V12.3c0-.23-.16-.44-.39-.49L14 10.11z" fill="#ffffff" opacity="1" data-original="#000000" class="hovered-path"></path><path d="M19.5 14c.28 0 .5.22.5.5s-.22.5-.5.5h-2c-.28 0-.5-.22-.5-.5s.22-.5.5-.5zM19.5 17c.28 0 .5.22.5.5s-.22.5-.5.5h-2c-.28 0-.5-.22-.5-.5s.22-.5.5-.5zM19.5 20c.28 0 .5.22.5.5s-.22.5-.5.5h-2c-.28 0-.5-.22-.5-.5s.22-.5.5-.5zM14 23.5c0 .28-.22.5-.5.5s-.5-.22-.5-.5v-14c0-.15.07-.29.18-.39.12-.09.27-.13.42-.1l.4.08V23z" fill="#ffffff" opacity="1" data-original="#000000" class="hovered-path"></path><path d="M13 23v.5c0 .28.22.5.5.5h-4c.28 0 .5-.22.5-.5V23zM10.5 5c.28 0 .5.22.5.5s-.22.5-.5.5h-2c-.28 0-.5-.22-.5-.5s.22-.5.5-.5zM11 8.5c0 .28-.22.5-.5.5h-2c-.28 0-.5-.22-.5-.5s.22-.5.5-.5h2c.28 0 .5.22.5.5zM10.5 11c.28 0 .5.22.5.5s-.22.5-.5.5h-2c-.28 0-.5-.22-.5-.5s.22-.5.5-.5zM10.5 14c.28 0 .5.22.5.5s-.22.5-.5.5h-2c-.28 0-.5-.22-.5-.5s.22-.5.5-.5zM6 14.5c0 .28-.22.5-.5.5h-2c-.28 0-.5-.22-.5-.5s.22-.5.5-.5h2c.28 0 .5.22.5.5zM5.5 5c.28 0 .5.22.5.5s-.22.5-.5.5h-2c-.28 0-.5-.22-.5-.5s.22-.5.5-.5zM5.5 8c.28 0 .5.22.5.5s-.22.5-.5.5h-2c-.28 0-.5-.22-.5-.5s.22-.5.5-.5zM5.5 11c.28 0 .5.22.5.5s-.22.5-.5.5h-2c-.28 0-.5-.22-.5-.5s.22-.5.5-.5zM9 18.5c0-.28-.23-.5-.5-.5h-3c-.28 0-.5.22-.5.5V23H4v-4.5c0-.83.67-1.5 1.5-1.5h3c.83 0 1.5.67 1.5 1.5V23H9z" fill="#ffffff" opacity="1" data-original="#000000" class="hovered-path"></path><path d="M5 23h5v.5c0 .28-.22.5-.5.5h-5c-.28 0-.5-.22-.5-.5V23z" fill="#ffffff" opacity="1" data-original="#000000" class="hovered-path"></path><path d="m1.75.2 10.99 1.67c.73.12 1.26.74 1.26 1.48v5.74l-.4-.08c-.15-.03-.3.01-.42.1-.11.1-.18.24-.18.39V3.35c0-.25-.18-.46-.42-.5L1.59 1.19c-.03-.01-.06-.01-.09-.01-.12 0-.23.04-.32.12-.12.1-.18.23-.18.38V22.5c0 .28.23.5.5.5H4v.5c0 .28.22.5.5.5h-3C.67 24 0 23.33 0 22.5V1.68C0 1.24.19.82.53.54.87.25 1.31.13 1.75.2z" fill="#ffffff" opacity="1" data-original="#000000" class="hovered-path"></path></g></svg>